%FSLAX34Y34*%
G04 Gerber Fmt 3.4, Leading zero omitted, Abs format*
G04 (created by PCBNEW (2014-03-08 BZR 4739)-product) date Sun 16 Mar 2014 10:57:22 AM MDT*
%MOIN*%
G01*
G70*
G90*
G04 APERTURE LIST*
%ADD10C,0.005906*%
%ADD11C,0.007500*%
%ADD12C,0.007264*%
%ADD13C,0.011811*%
%ADD14C,0.010000*%
%ADD15C,0.003900*%
%ADD16C,0.006000*%
%ADD17C,0.004300*%
%ADD18C,0.008000*%
G04 APERTURE END LIST*
G54D10*
G54D11*
X68178Y-41185D02*
X68235Y-41185D01*
X68264Y-41200D01*
X68292Y-41228D01*
X68307Y-41285D01*
X68307Y-41385D01*
X68292Y-41442D01*
X68264Y-41471D01*
X68235Y-41485D01*
X68178Y-41485D01*
X68150Y-41471D01*
X68121Y-41442D01*
X68107Y-41385D01*
X68107Y-41285D01*
X68121Y-41228D01*
X68150Y-41200D01*
X68178Y-41185D01*
X68592Y-41485D02*
X68421Y-41485D01*
X68507Y-41485D02*
X68507Y-41185D01*
X68478Y-41228D01*
X68450Y-41257D01*
X68421Y-41271D01*
X67128Y-41185D02*
X67185Y-41185D01*
X67214Y-41200D01*
X67242Y-41228D01*
X67257Y-41285D01*
X67257Y-41385D01*
X67242Y-41442D01*
X67214Y-41471D01*
X67185Y-41485D01*
X67128Y-41485D01*
X67100Y-41471D01*
X67071Y-41442D01*
X67057Y-41385D01*
X67057Y-41285D01*
X67071Y-41228D01*
X67100Y-41200D01*
X67128Y-41185D01*
X67357Y-41185D02*
X67542Y-41185D01*
X67442Y-41300D01*
X67485Y-41300D01*
X67514Y-41314D01*
X67528Y-41328D01*
X67542Y-41357D01*
X67542Y-41428D01*
X67528Y-41457D01*
X67514Y-41471D01*
X67485Y-41485D01*
X67400Y-41485D01*
X67371Y-41471D01*
X67357Y-41457D01*
X64600Y-39335D02*
X64600Y-39035D01*
X64742Y-39335D02*
X64742Y-39035D01*
X64914Y-39335D01*
X64914Y-39035D01*
X65214Y-39335D02*
X65042Y-39335D01*
X65128Y-39335D02*
X65128Y-39035D01*
X65100Y-39078D01*
X65071Y-39107D01*
X65042Y-39121D01*
X62600Y-39335D02*
X62600Y-39035D01*
X62742Y-39335D02*
X62742Y-39035D01*
X62914Y-39335D01*
X62914Y-39035D01*
X63028Y-39035D02*
X63214Y-39035D01*
X63114Y-39150D01*
X63157Y-39150D01*
X63185Y-39164D01*
X63200Y-39178D01*
X63214Y-39207D01*
X63214Y-39278D01*
X63200Y-39307D01*
X63185Y-39321D01*
X63157Y-39335D01*
X63071Y-39335D01*
X63042Y-39321D01*
X63028Y-39307D01*
X60771Y-39050D02*
X60742Y-39035D01*
X60700Y-39035D01*
X60657Y-39050D01*
X60628Y-39078D01*
X60614Y-39107D01*
X60600Y-39164D01*
X60600Y-39207D01*
X60614Y-39264D01*
X60628Y-39292D01*
X60657Y-39321D01*
X60700Y-39335D01*
X60728Y-39335D01*
X60771Y-39321D01*
X60785Y-39307D01*
X60785Y-39207D01*
X60728Y-39207D01*
X60914Y-39335D02*
X60914Y-39035D01*
X61085Y-39335D01*
X61085Y-39035D01*
X61228Y-39335D02*
X61228Y-39035D01*
X61300Y-39035D01*
X61342Y-39050D01*
X61371Y-39078D01*
X61385Y-39107D01*
X61400Y-39164D01*
X61400Y-39207D01*
X61385Y-39264D01*
X61371Y-39292D01*
X61342Y-39321D01*
X61300Y-39335D01*
X61228Y-39335D01*
G54D12*
X59540Y-39040D02*
X59720Y-39040D01*
X59623Y-39151D01*
X59664Y-39151D01*
X59692Y-39165D01*
X59706Y-39179D01*
X59720Y-39206D01*
X59720Y-39276D01*
X59706Y-39303D01*
X59692Y-39317D01*
X59664Y-39331D01*
X59581Y-39331D01*
X59554Y-39317D01*
X59540Y-39303D01*
X59803Y-39040D02*
X59900Y-39331D01*
X59996Y-39040D01*
X60066Y-39040D02*
X60245Y-39040D01*
X60149Y-39151D01*
X60190Y-39151D01*
X60218Y-39165D01*
X60232Y-39179D01*
X60245Y-39206D01*
X60245Y-39276D01*
X60232Y-39303D01*
X60218Y-39317D01*
X60190Y-39331D01*
X60107Y-39331D01*
X60079Y-39317D01*
X60066Y-39303D01*
G54D13*
X66937Y-37526D02*
X66656Y-37526D01*
X66628Y-37807D01*
X66656Y-37779D01*
X66712Y-37751D01*
X66853Y-37751D01*
X66909Y-37779D01*
X66937Y-37807D01*
X66965Y-37864D01*
X66965Y-38004D01*
X66937Y-38060D01*
X66909Y-38089D01*
X66853Y-38117D01*
X66712Y-38117D01*
X66656Y-38089D01*
X66628Y-38060D01*
X67134Y-37526D02*
X67331Y-38117D01*
X67528Y-37526D01*
G54D14*
X64800Y-37900D02*
X64800Y-38100D01*
X65000Y-37900D02*
X65000Y-38100D01*
X64000Y-37900D02*
X64000Y-38100D01*
X63800Y-37900D02*
X63800Y-38100D01*
X63000Y-37900D02*
X63000Y-38100D01*
X62800Y-37900D02*
X62800Y-38100D01*
X59800Y-37900D02*
X59800Y-38100D01*
X60000Y-37900D02*
X60000Y-38100D01*
X62000Y-37900D02*
X62000Y-38100D01*
X61800Y-37900D02*
X61800Y-38100D01*
X61000Y-37900D02*
X61000Y-38100D01*
X60800Y-37900D02*
X60800Y-38100D01*
G54D15*
X64900Y-41300D02*
G75*
G03X64900Y-41300I-50J0D01*
G74*
G01*
X65300Y-41300D02*
X64900Y-41300D01*
X64900Y-41300D02*
X64900Y-40700D01*
X64900Y-40700D02*
X65300Y-40700D01*
X65700Y-40700D02*
X66100Y-40700D01*
X66100Y-40700D02*
X66100Y-41300D01*
X66100Y-41300D02*
X65700Y-41300D01*
X64900Y-40300D02*
G75*
G03X64900Y-40300I-50J0D01*
G74*
G01*
X65300Y-40300D02*
X64900Y-40300D01*
X64900Y-40300D02*
X64900Y-39700D01*
X64900Y-39700D02*
X65300Y-39700D01*
X65700Y-39700D02*
X66100Y-39700D01*
X66100Y-39700D02*
X66100Y-40300D01*
X66100Y-40300D02*
X65700Y-40300D01*
X59900Y-41300D02*
G75*
G03X59900Y-41300I-50J0D01*
G74*
G01*
X60300Y-41300D02*
X59900Y-41300D01*
X59900Y-41300D02*
X59900Y-40700D01*
X59900Y-40700D02*
X60300Y-40700D01*
X60700Y-40700D02*
X61100Y-40700D01*
X61100Y-40700D02*
X61100Y-41300D01*
X61100Y-41300D02*
X60700Y-41300D01*
X59900Y-40300D02*
G75*
G03X59900Y-40300I-50J0D01*
G74*
G01*
X60300Y-40300D02*
X59900Y-40300D01*
X59900Y-40300D02*
X59900Y-39700D01*
X59900Y-39700D02*
X60300Y-39700D01*
X60700Y-39700D02*
X61100Y-39700D01*
X61100Y-39700D02*
X61100Y-40300D01*
X61100Y-40300D02*
X60700Y-40300D01*
G54D14*
X66800Y-40900D02*
X68800Y-40900D01*
X66800Y-39150D02*
X68800Y-39150D01*
X68800Y-41650D02*
X66800Y-41650D01*
X68800Y-41650D02*
X68800Y-39150D01*
X66800Y-41650D02*
X66800Y-39150D01*
G54D16*
X63500Y-40900D02*
G75*
G03X63500Y-40900I-100J0D01*
G74*
G01*
X63600Y-39900D02*
X63600Y-41100D01*
X63600Y-41100D02*
X62400Y-41100D01*
X62400Y-41100D02*
X62400Y-39900D01*
X62400Y-39900D02*
X63600Y-39900D01*
G54D14*
X67800Y-37350D02*
X67800Y-38350D01*
X67800Y-38350D02*
X68800Y-38350D01*
X68800Y-38350D02*
X68800Y-37350D01*
X68800Y-37350D02*
X67800Y-37350D01*
G54D17*
X65467Y-41570D02*
X65457Y-41579D01*
X65429Y-41589D01*
X65410Y-41589D01*
X65382Y-41579D01*
X65363Y-41560D01*
X65354Y-41542D01*
X65345Y-41504D01*
X65345Y-41476D01*
X65354Y-41439D01*
X65363Y-41420D01*
X65382Y-41401D01*
X65410Y-41392D01*
X65429Y-41392D01*
X65457Y-41401D01*
X65467Y-41410D01*
X65654Y-41589D02*
X65542Y-41589D01*
X65598Y-41589D02*
X65598Y-41392D01*
X65579Y-41420D01*
X65560Y-41439D01*
X65542Y-41448D01*
X65467Y-39570D02*
X65457Y-39579D01*
X65429Y-39589D01*
X65410Y-39589D01*
X65382Y-39579D01*
X65363Y-39560D01*
X65354Y-39542D01*
X65345Y-39504D01*
X65345Y-39476D01*
X65354Y-39439D01*
X65363Y-39420D01*
X65382Y-39401D01*
X65410Y-39392D01*
X65429Y-39392D01*
X65457Y-39401D01*
X65467Y-39410D01*
X65542Y-39410D02*
X65551Y-39401D01*
X65570Y-39392D01*
X65617Y-39392D01*
X65636Y-39401D01*
X65645Y-39410D01*
X65654Y-39429D01*
X65654Y-39448D01*
X65645Y-39476D01*
X65532Y-39589D01*
X65654Y-39589D01*
X60467Y-41670D02*
X60457Y-41679D01*
X60429Y-41689D01*
X60410Y-41689D01*
X60382Y-41679D01*
X60363Y-41660D01*
X60354Y-41642D01*
X60345Y-41604D01*
X60345Y-41576D01*
X60354Y-41539D01*
X60363Y-41520D01*
X60382Y-41501D01*
X60410Y-41492D01*
X60429Y-41492D01*
X60457Y-41501D01*
X60467Y-41510D01*
X60532Y-41492D02*
X60654Y-41492D01*
X60589Y-41567D01*
X60617Y-41567D01*
X60636Y-41576D01*
X60645Y-41585D01*
X60654Y-41604D01*
X60654Y-41651D01*
X60645Y-41670D01*
X60636Y-41679D01*
X60617Y-41689D01*
X60560Y-41689D01*
X60542Y-41679D01*
X60532Y-41670D01*
X60467Y-39570D02*
X60457Y-39579D01*
X60429Y-39589D01*
X60410Y-39589D01*
X60382Y-39579D01*
X60363Y-39560D01*
X60354Y-39542D01*
X60345Y-39504D01*
X60345Y-39476D01*
X60354Y-39439D01*
X60363Y-39420D01*
X60382Y-39401D01*
X60410Y-39392D01*
X60429Y-39392D01*
X60457Y-39401D01*
X60467Y-39410D01*
X60636Y-39457D02*
X60636Y-39589D01*
X60589Y-39382D02*
X60542Y-39523D01*
X60664Y-39523D01*
G54D16*
X62395Y-41180D02*
X62395Y-41504D01*
X62414Y-41542D01*
X62433Y-41561D01*
X62471Y-41580D01*
X62547Y-41580D01*
X62585Y-41561D01*
X62604Y-41542D01*
X62623Y-41504D01*
X62623Y-41180D01*
X63023Y-41580D02*
X62795Y-41580D01*
X62909Y-41580D02*
X62909Y-41180D01*
X62871Y-41238D01*
X62833Y-41276D01*
X62795Y-41295D01*
G54D18*
X67930Y-37176D02*
X67930Y-36676D01*
X68121Y-36676D01*
X68169Y-36700D01*
X68192Y-36723D01*
X68216Y-36771D01*
X68216Y-36842D01*
X68192Y-36890D01*
X68169Y-36914D01*
X68121Y-36938D01*
X67930Y-36938D01*
X68407Y-36723D02*
X68430Y-36700D01*
X68478Y-36676D01*
X68597Y-36676D01*
X68645Y-36700D01*
X68669Y-36723D01*
X68692Y-36771D01*
X68692Y-36819D01*
X68669Y-36890D01*
X68383Y-37176D01*
X68692Y-37176D01*
M02*
